<?xml version="1.0" standalone="no"?><!DOCTYPE svg PUBLIC "-//W3C//DTD SVG 1.1//EN" "http://www.w3.org/Graphics/SVG/1.1/DTD/svg11.dtd"><svg class="icon" width="200px" height="200.00px" viewBox="0 0 1024 1024" version="1.1" xmlns="http://www.w3.org/2000/svg"><path fill="#333333" d="M994.296957 766.797137v-0.849682h-160.794658v-160.794658h-0.849682a32.769065 32.769065 0 0 0-65.241252 0h-0.849682v160.794658H606.806094v0.767785a32.774183 32.774183 0 0 0 0 65.405046v0.767785h159.755589v159.755589h0.767785a32.774183 32.774183 0 0 0 65.405046 0h0.767785v-159.75047h160.794658v-0.849682a32.769065 32.769065 0 0 0 0-65.246371z"  /><path fill="#333333" d="M1023.953933 40.610709A40.610709 40.610709 0 0 0 983.343224 0H40.610709A40.610709 40.610709 0 0 0 0 40.610709v942.778582a40.610709 40.610709 0 0 0 40.610709 40.610709H481.273243v-0.07166a32.774183 32.774183 0 0 0 0-65.405047v-0.015355h-0.209861a32.246971 32.246971 0 0 0-3.736554 0H65.492062V65.492062h256.081897v275.363538a40.610709 40.610709 0 0 0 40.610709 40.610709h302.50218a40.610709 40.610709 0 0 0 40.610709-40.610709V65.492062h253.169432V477.203983h0.010237a32.774183 32.774183 0 1 0 65.415284 0h0.066541V40.610709zM639.800376 315.969129H387.066022V65.492062h252.734354V315.969129z"  /></svg>