<?xml version="1.0" standalone="no"?><!DOCTYPE svg PUBLIC "-//W3C//DTD SVG 1.1//EN" "http://www.w3.org/Graphics/SVG/1.1/DTD/svg11.dtd"><svg class="icon" width="200px" height="200.00px" viewBox="0 0 1024 1024" version="1.1" xmlns="http://www.w3.org/2000/svg"><path d="M836.266667 307.2H238.933333c-10.24 0-17.066667 6.826667-17.066666 17.066667s6.826667 17.066667 17.066666 17.066666h597.333334c29.013333 0 51.2 22.186667 51.2 51.2v443.733334c0 29.013333-22.186667 51.2-51.2 51.2H187.733333c-29.013333 0-51.2-22.186667-51.2-51.2V353.28c0-13.653333 5.12-27.306667 15.36-35.84l165.546667-165.546667c8.533333-10.24 22.186667-15.36 35.84-15.36h319.146667c13.653333 0 27.306667 5.12 35.84 15.36l117.76 117.76c6.826667 6.826667 17.066667 6.826667 23.893333 0 6.826667-6.826667 6.826667-17.066667 0-23.893333l-117.76-117.76c-17.066667-17.066667-37.546667-25.6-61.44-25.6H353.28c-22.186667 0-44.373333 8.533333-59.733333 25.6l-165.546667 165.546667c-15.36 15.36-23.893333 34.133333-25.6 54.613333V836.266667c0 47.786667 37.546667 85.333333 85.333333 85.333333h648.533334c47.786667 0 85.333333-37.546667 85.333333-85.333333V392.533333c0-47.786667-37.546667-85.333333-85.333333-85.333333z" fill="#34A6FF" /><path d="M510.293333 609.28l-18.773333-18.773333c-10.24 13.653333-18.773333 23.893333-29.013333 30.72l-15.36-10.24v-3.413334c18.773333-22.186667 30.72-46.08 39.253333-69.973333V512h-35.84c-5.12-15.36-11.946667-32.426667-20.48-51.2l-30.72 8.533333c6.826667 13.653333 13.653333 29.013333 18.773333 42.666667h-51.2v29.013333h87.04c-17.066667 35.84-47.786667 71.68-95.573333 109.226667l10.24 32.426667c17.066667-13.653333 32.426667-27.306667 46.08-40.96v134.826666h32.426667v-136.533333c15.36 13.653333 30.72 29.013333 44.373333 47.786667l17.066667-27.306667c-8.533333-8.533333-17.066667-17.066667-27.306667-23.893333 10.24-6.826667 20.48-17.066667 29.013333-27.306667zM581.973333 573.44v-110.933333h-32.426666v314.026666h32.426666v-168.96c20.48 15.36 44.373333 35.84 75.093334 61.44l18.773333-29.013333c-32.426667-23.893333-63.146667-46.08-93.866667-66.56z" fill="#FF587A" /></svg>