<?xml version="1.0" standalone="no"?><!DOCTYPE svg PUBLIC "-//W3C//DTD SVG 1.1//EN" "http://www.w3.org/Graphics/SVG/1.1/DTD/svg11.dtd"><svg class="icon" width="200px" height="200.00px" viewBox="0 0 1024 1024" version="1.1" xmlns="http://www.w3.org/2000/svg"><path fill="#333333" d="M433.92 645.632c0 44.032 35.84 79.36 79.36 79.36s79.36-35.84 79.36-79.36-35.84-79.36-79.36-79.36-79.36 35.328-79.36 79.36z m33.792 185.856c0 25.088 20.48 45.568 45.568 45.568s45.568-20.48 45.568-45.568-20.48-45.568-45.568-45.568-45.568 20.48-45.568 45.568zM758.528 0H265.472c-36.864 0-61.44 29.184-61.44 73.216v877.568c0 44.032 24.576 73.216 61.44 73.216h493.056c30.72 0 61.44-29.184 61.44-73.216V73.216c0-44.032-30.72-73.216-61.44-73.216z m-7.168 950.784H272.128V73.216h479.232v877.568zM323.328 105.472h161.792c16.384 1.536 12.288 30.208 12.288 48.64v88.576c0 19.456 3.584 43.008-9.216 48.128-7.68 3.584-30.208 1.024-41.472 1.024H361.216c-19.968 0-47.104 4.608-50.176-12.288V117.76c2.048-6.144 6.144-10.24 12.288-12.288z m22.528 36.352v115.2h116.736V140.288H346.368c-0.512 0-0.512 1.024-0.512 1.536z m195.072-36.352H702.72c6.656 2.56 11.264 6.656 12.288 14.336v157.696c-1.536 6.656-5.12 12.288-11.264 13.824-10.752 3.072-28.16 0.512-40.96 0.512H579.84c-12.288 0-31.232 2.56-41.472-0.512-14.336-4.608-10.24-32.256-10.24-51.712v-81.92c0.512-22.528-4.608-49.152 12.8-52.224z m22.528 36.352v115.2h116.736V140.288h-116.224c-0.512 0-0.512 1.024-0.512 1.536z m-164.352 33.792c16.384-3.072 29.184 7.68 29.184 22.528 0.512 19.456-19.968 30.208-35.328 22.016-17.92-9.216-16.384-40.448 6.144-44.544z m217.6 0c38.4-7.168 37.376 52.736 0 46.592-24.064-3.584-25.088-41.984 0-46.592zM484.608 509.44H323.84c-6.656-2.048-11.264-6.144-12.8-12.8V335.36c1.536-4.608 5.12-10.24 10.752-11.776 10.752-3.072 28.16-0.512 40.96-0.512h82.944c12.288 0 30.208-2.56 41.472 0.512 14.848 4.608 10.752 31.744 10.752 50.688v84.992c0 21.504 4.608 48.64-13.312 50.176zM345.856 359.424v115.2h116.736V357.888H346.368c-0.512 0-0.512 1.024-0.512 1.536z m369.664-22.016v45.056c-1.024 15.36 0 32.768-0.512 48.64h-115.712v-26.112c-10.752-1.024-24.064 0-35.84-0.512-1.024 33.792 0 70.144-0.512 104.96h-20.992c-18.432-3.584-12.8-30.72-12.8-52.224V374.784c0-12.288-2.56-31.232 0.512-41.472 3.584-11.776 19.968-10.24 35.84-10.24h78.848V394.24h36.352c0.512-23.552-0.512-48.64 0.512-71.168 16.896-1.024 33.28-0.512 34.304 14.336zM401.664 392.704c17.408-2.048 31.744 14.336 25.088 32.768-9.216 25.088-54.272 15.872-45.568-15.872 2.048-9.216 9.216-15.36 20.48-16.896z m236.544 116.736h-38.912c0.512-13.824-0.512-29.184 0.512-41.984h38.4v41.984z m77.312-41.472v27.136c-1.536 7.68-6.144 12.288-12.8 14.336h-27.648c0.512-13.824-0.512-29.184 0.512-41.984h39.936v0.512z" /></svg>