<?xml version="1.0" standalone="no"?><!DOCTYPE svg PUBLIC "-//W3C//DTD SVG 1.1//EN" "http://www.w3.org/Graphics/SVG/1.1/DTD/svg11.dtd"><svg class="icon" width="200px" height="200.00px" viewBox="0 0 1024 1024" version="1.1" xmlns="http://www.w3.org/2000/svg"><path fill="#333333" d="M258.92619365 962.00002549c-32.51645508 0-70.57835244-19.53508008-70.57835244-74.73743349L188.34784121 576.96990664 123.94509453 576.96990664c-11.72104805 0-24.95448896-7.81403203-35.41520918-20.79540703C77.56503506 542.56296026 71.51546182 524.91837148 71.51546182 506.64362012l0-8.19213048L486.16328164 69.30990107C490.95252705 64.52065566 497.88432969 62 506.58059112 62c9.83055586 0 17.26648945 2.52065566 22.18176825 7.43593359 1.51239287 1.51239287 375.07352959 381.75326631 417.67260646 425.10854005l5.79750732 5.92354071 0 8.19213047c0 18.7788832-3.15081914 33.27265195-9.70452335 44.11147061-8.57022891 14.36773623-23.06399766 22.30780078-40.70858555 22.30780079l-62.51225537 0-1.0082619 314.82986484-0.50413096 2.26858974c-0.37809844 1.76445879-4.41114698 17.51855537-15.12393223 33.65075039-15.75409658 23.69416114-37.80983144 36.17140518-63.89861572 36.17140518L605.5163167 962.00002549l0-20.16524356c0.12603252-79.14858047 0.25206592-286.47249082 0-295.54685068-0.12603252-4.66321289-4.78924541-16.76235849-10.08262178-16.76235849L429.19646855 629.52557276c-3.6549501 0-11.09088369 6.93180263-11.09088368 16.13219501l0 316.34225772L263.84147158 962.00002549C262.70717714 961.87399209 261.06875088 962.00002549 258.92619365 962.00002549M126.08765176 536.63941953l102.71670908 0 0 350.62317159c0 8.57022891 0 34.40694638 30.24786533 34.40694638 1.00826192 0 1.63842627 0 1.89049131 0l1.26032783-0.12603252 0.8822294 0L377.77509776 921.54350498 377.77509776 645.40570185c0-29.99579942 24.07225957-56.46268213 51.4213708-56.46268212l166.23722636 0c16.00616162 0 30.12183281 8.19213047 39.70032364 23.06399766 7.43593359 11.59501464 10.33468769 24.57639053 10.58675273 32.76852099 0.25206592 9.95658926 0.12603252 210.97886045 0 276.64193496l112.79933086 0c26.08878339 0 36.80156953-28.9875375 39.32222519-37.05363457l1.00826192-349.86697559 102.71670908 0c4.5371795 0 5.29337637-1.26032783 6.17560577-2.64668818 1.13429531-2.01652471 3.02478662-6.30163828 3.65495009-15.37599815-47.13625635-47.89245322-352.76572881-359.06736797-404.06106709-411.24493476L112.4761124 514.07955372C114.74470215 527.56505967 123.06286513 534.74892823 126.08765176 536.63941953"  /></svg>