<?xml version="1.0" standalone="no"?><!DOCTYPE svg PUBLIC "-//W3C//DTD SVG 1.1//EN" "http://www.w3.org/Graphics/SVG/1.1/DTD/svg11.dtd"><svg class="icon" width="200px" height="200.00px" viewBox="0 0 1024 1024" version="1.1" xmlns="http://www.w3.org/2000/svg"><path d="M36.571429 1020.342857c40.228571-175.542857 497.371429-592.457143 822.857142 0H36.571429z" fill="#ECF6FF" /><path d="M95.085714 420.571429a340.114286 325.485714 0 1 0 680.228572 0 340.114286 325.485714 0 1 0-680.228572 0Z" fill="#E5F0FF" /><path d="M482.742857 768C266.971429 768 91.428571 596.114286 91.428571 384S266.971429 3.657143 482.742857 3.657143s391.314286 171.885714 391.314286 384S698.514286 768 482.742857 768z m0-69.485714c175.542857 0 318.171429-138.971429 318.171429-310.857143S658.285714 73.142857 482.742857 73.142857s-318.171429 138.971429-318.171428 310.857143 142.628571 314.514286 318.171428 314.514286z" fill="#1062F1" /><path d="M629.028571 738.742857c120.685714 36.571429 219.428571 128 266.971429 237.714286 0 25.6 21.942857 43.885714 47.542857 43.885714 25.6 0 47.542857-18.285714 47.542857-43.885714h3.657143c-43.885714-128-138.971429-234.057143-266.971428-296.228572-29.257143 25.6-62.171429 43.885714-98.742858 58.514286z m-281.6 7.314286c-113.371429 40.228571-208.457143 124.342857-252.342857 234.057143 0 25.6-21.942857 43.885714-47.542857 43.885714S0 1005.714286 0 980.114286c0-3.657143 3.657143-7.314286 3.657143-10.971429 0-3.657143 0-3.657143 3.657143-3.657143 43.885714-117.028571 131.657143-212.114286 245.028571-270.628571 25.6 18.285714 58.514286 36.571429 95.085714 51.2zM334.116571 320.438857c-18.285714 0-36.571429 14.628571-36.571428 32.914286v32.914286c0 18.285714 14.628571 32.914286 36.571428 32.914285s36.571429-14.628571 36.571429-32.914285v-32.914286c-3.657143-18.285714-18.285714-32.914286-36.571429-32.914286z m270.628572 0c-18.285714 0-36.571429 14.628571-36.571429 32.914286v32.914286c0 18.285714 14.628571 32.914286 36.571429 32.914285s36.571429-14.628571 36.571428-32.914285v-32.914286c0-18.285714-18.285714-32.914286-36.571428-32.914286z m-51.2 149.942857c-14.628571-10.971429-36.571429-7.314286-47.542857 7.314286 0 0-14.628571 21.942857-36.571429 21.942857s-36.571429-18.285714-36.571428-21.942857c-10.971429-14.628571-32.914286-18.285714-47.542858-10.971429-18.285714 10.971429-21.942857 29.257143-10.971428 47.542858s47.542857 51.2 95.085714 51.2 84.114286-32.914286 95.085714-51.2c10.971429-14.628571 7.314286-36.571429-10.971428-43.885715z" fill="#1062F1" /></svg>