<?xml version="1.0" standalone="no"?><!DOCTYPE svg PUBLIC "-//W3C//DTD SVG 1.1//EN" "http://www.w3.org/Graphics/SVG/1.1/DTD/svg11.dtd"><svg class="icon" width="200px" height="200.00px" viewBox="0 0 1024 1024" version="1.1" xmlns="http://www.w3.org/2000/svg"><path fill="#333333" d="M849.581 169.865c14.224 0 25.787 11.563 25.787 25.787V829.78c0 14.223-11.563 25.787-25.787 25.787H182.093c-14.223 0-25.786-11.564-25.786-25.787V195.65c0-14.223 11.563-25.786 25.786-25.786h667.488m0-40.931H182.093c-36.838 0-66.718 29.88-66.718 66.718V829.78c0 36.838 29.88 66.718 66.718 66.718h667.488c36.839 0 66.718-29.88 66.718-66.718V195.65c0-36.837-29.88-66.717-66.718-66.717z"  /><path fill="#333333" d="M268.356 562.397c-11.154 0-20.26 9.107-20.26 20.26v159.838c0 11.153 9.106 20.26 20.26 20.26 11.154 0 20.261-9.107 20.261-20.26V582.658c0-11.154-9.107-20.261-20.26-20.261zM431.468 463.036c-11.154 0-20.261 9.107-20.261 20.26v259.301c0 11.154 9.107 20.261 20.26 20.261 11.154 0 20.262-9.107 20.262-20.261v-259.3c0-11.154-9.108-20.261-20.261-20.261zM600.821 562.397c-11.154 0-20.261 9.107-20.261 20.26v159.838c0 11.153 9.107 20.26 20.261 20.26s20.261-9.107 20.261-20.26V582.658c0-11.154-9.107-20.261-20.261-20.261zM765.365 463.036c-11.154 0-20.261 9.107-20.261 20.26v259.199c0 11.153 9.107 20.26 20.261 20.26s20.261-9.107 20.261-20.26V483.399c0.102-11.256-9.107-20.363-20.261-20.363z"  /><path fill="#333333" d="M778.872 274.24l-97.928-20.773c-9.005-1.944-17.907 3.889-19.75 12.894-1.943 9.005 3.89 17.907 12.894 19.75l52.085 11.05L578.718 413.51 454.901 309.85c-7.163-7.367-18.931-8.288-27.117-1.842l-187.67 148.07c-8.8 6.958-10.233 19.749-3.377 28.447 6.958 8.8 19.75 10.233 28.447 3.377l174.674-137.734 122.283 102.43a20.62 20.62 0 0 0 14.019 4.707c5.833 1.433 12.28 0.205 17.293-3.786l156.563-123.51-11.666 55.053c-1.944 9.005 3.889 17.907 12.894 19.749 9.005 1.944 17.907-3.888 19.75-12.893l20.772-97.929c1.944-8.902-3.889-17.805-12.894-19.749z"  /></svg>