<?xml version="1.0" standalone="no"?><!DOCTYPE svg PUBLIC "-//W3C//DTD SVG 1.1//EN" "http://www.w3.org/Graphics/SVG/1.1/DTD/svg11.dtd"><svg class="icon" width="200px" height="200.00px" viewBox="0 0 1024 1024" version="1.1" xmlns="http://www.w3.org/2000/svg"><path d="M896 76.8a25.6 25.6 0 0 1 25.6 25.6v693.76a25.6 25.6 0 0 1-25.6 25.6H128a25.6 25.6 0 0 1-25.6-25.6V102.4a25.6 25.6 0 0 1 25.6-25.6h768m0-76.8H128a102.4 102.4 0 0 0-102.4 102.4v693.76a102.4 102.4 0 0 0 102.4 102.4h768a102.4 102.4 0 0 0 102.4-102.4V102.4a102.4 102.4 0 0 0-102.4-102.4z" fill="#1A8AFA" /><path d="M338.432 1024a143.104 143.104 0 0 1-140.8-145.152 38.4 38.4 0 1 1 76.8 0 65.024 65.024 0 0 0 64 66.048 65.024 65.024 0 0 0 64-66.048 38.4 38.4 0 1 1 76.8 0 143.104 143.104 0 0 1-140.8 145.152zM685.568 1024a143.104 143.104 0 0 1-140.8-145.152 38.4 38.4 0 1 1 76.8 0 65.024 65.024 0 0 0 64 66.048 65.024 65.024 0 0 0 64-66.048 38.4 38.4 0 1 1 76.8 0 143.104 143.104 0 0 1-140.8 145.152zM947.2 356.864H102.4a38.656 38.656 0 0 0-38.4 38.656v1.792A38.656 38.656 0 0 0 102.4 435.2h844.8a38.656 38.656 0 0 0 38.4-38.656v-1.792a38.656 38.656 0 0 0-38.4-37.888z" fill="#1A8AFA" /><path d="M247.552 668.672a79.104 76.8 90 1 0 153.6 0 79.104 76.8 90 1 0-153.6 0Z" fill="#99D1FF" /><path d="M648.448 668.672a79.104 76.8 90 1 0 153.6 0 79.104 76.8 90 1 0-153.6 0Z" fill="#99D1FF" /></svg>