<?xml version="1.0" standalone="no"?><!DOCTYPE svg PUBLIC "-//W3C//DTD SVG 1.1//EN" "http://www.w3.org/Graphics/SVG/1.1/DTD/svg11.dtd"><svg class="icon" width="200px" height="200.00px" viewBox="0 0 1024 1024" version="1.1" xmlns="http://www.w3.org/2000/svg"><path fill="#1296db" d="M800 768c-19.2 0-32 12.8-32 32v134.4c0 12.8-12.8 25.6-25.6 25.6H89.6c-12.8 0-25.6-12.8-25.6-25.6V89.6c0-12.8 12.8-25.6 25.6-25.6h390.4c19.2 0 38.4 0 57.6 6.4 6.4 19.2 6.4 76.8-19.2 185.6-6.4 19.2 0 32 12.8 44.8 12.8 12.8 32 12.8 44.8 6.4 83.2-25.6 160 19.2 185.6 38.4 6.4 19.2 6.4 32 6.4 51.2v12.8c0 19.2 12.8 38.4 32 38.4s32-19.2 32-32v-19.2c0-76.8-19.2-147.2-57.6-211.2C742.4 128 704 83.2 652.8 51.2 633.6 38.4 601.6 19.2 569.6 12.8 563.2 6.4 556.8 6.4 544 6.4c-19.2-6.4-44.8-6.4-64-6.4H89.6C38.4 0 0 38.4 0 89.6v844.8c0 51.2 38.4 89.6 89.6 89.6h652.8c51.2 0 89.6-38.4 89.6-89.6v-134.4c0-19.2-12.8-32-32-32z m-83.2-544l19.2 38.4c-38.4-19.2-96-32-153.6-19.2 12.8-64 19.2-108.8 19.2-140.8 6.4 0 6.4 6.4 12.8 6.4 44.8 25.6 76.8 64 102.4 115.2z"  /><path fill="#1296db" d="M384 736c19.2 0 32-12.8 32-32V576h128c19.2 0 32-12.8 32-32S563.2 512 544 512h-128V384c0-19.2-12.8-32-32-32s-32 12.8-32 32v128h-128c-19.2 0-32 12.8-32 32s12.8 32 32 32h128v128c0 19.2 12.8 32 32 32zM1017.6 396.8c-12.8-12.8-32-12.8-44.8-6.4l-448 384c-12.8 12.8-12.8 32-6.4 44.8 6.4 6.4 19.2 12.8 25.6 12.8 6.4 0 12.8 0 19.2-6.4l448-384c12.8-12.8 19.2-32 6.4-44.8z"  /></svg>